{"accessors" : [{"bufferView" : 0, "byteOffset" : 0, "componentType" : 5123, "count" : 372, "type" : "SCALAR", "max" : [311], "min" : [0]}, {"bufferView" : 1, "byteOffset" : 0, "componentType" : 5126, "count" : 312, "type" : "VEC3", "max" : [1, 1, 1], "min" : [-1, -1, -1], "name" : "POSITION"}, {"bufferView" : 1, "byteOffset" : 12, "componentType" : 5126, "count" : 312, "type" : "VEC3", "max" : [0.9951891303062439, 1.0000044107437134, 0.9951891303062439], "min" : [-0.9951891303062439, -1.0000042915344238, -0.9951891303062439], "name" : "NORMAL"}, {"bufferView" : 1, "byteOffset" : 24, "componentType" : 5126, "count" : 312, "type" : "VEC2", "max" : [1, 0.9900000095367432], "min" : [0, 0], "name" : "TEXCOORD_0"}, {"bufferView" : 0, "byteOffset" : 744, "componentType" : 5123, "count" : 66, "type" : "SCALAR", "max" : [54], "min" : [0]}, {"bufferView" : 2, "byteOffset" : 0, "componentType" : 5126, "count" : 55, "type" : "VEC3", "max" : [1.2078888416290283, 3.634844603084275E-08, 1], "min" : [-1.2642468214035034, -0.3100000321865082, -1], "name" : "POSITION"}, {"bufferView" : 2, "byteOffset" : 12, "componentType" : 5126, "count" : 55, "type" : "VEC3", "max" : [0.9800289869308472, 1.0000044107437134, 1.0000044107437134], "min" : [-0.9683099389076233, -1.0000044107437134, -1.0000044107437134], "name" : "NORMAL"}, {"bufferView" : 2, "byteOffset" : 24, "componentType" : 5126, "count" : 55, "type" : "VEC2", "max" : [1, 1], "min" : [0, 0], "name" : "TEXCOORD_0"}, {"bufferView" : 0, "byteOffset" : 876, "componentType" : 5123, "count" : 1179, "type" : "SCALAR", "max" : [1037], "min" : [0]}, {"bufferView" : 3, "byteOffset" : 0, "componentType" : 5126, "count" : 1038, "type" : "VEC3", "max" : [3.057000160217285, 0, 0.009000000543892384], "min" : [0.07700000703334808, 0, -0.6820000410079956], "name" : "POSITION"}, {"bufferView" : 3, "byteOffset" : 12, "componentType" : 5126, "count" : 1038, "type" : "VEC3", "max" : [0, 1.0000044107437134, -0], "min" : [0, 1.0000042915344238, -0], "name" : "NORMAL"}, {"bufferView" : 3, "byteOffset" : 24, "componentType" : 5126, "count" : 1038, "type" : "VEC2", "max" : [1, 1], "min" : [0, 1], "name" : "TEXCOORD_0"}, {"bufferView" : 0, "byteOffset" : 3236, "componentType" : 5123, "count" : 1434, "type" : "SCALAR", "max" : [1276], "min" : [0]}, {"bufferView" : 4, "byteOffset" : 0, "componentType" : 5126, "count" : 1277, "type" : "VEC3", "max" : [3.2230002880096436, 0, 0.009000000543892384], "min" : [0.07700000703334808, 0, -0.6910000443458557], "name" : "POSITION"}, {"bufferView" : 4, "byteOffset" : 12, "componentType" : 5126, "count" : 1277, "type" : "VEC3", "max" : [0, 1.0000044107437134, -0], "min" : [0, 1.0000042915344238, -0], "name" : "NORMAL"}, {"bufferView" : 4, "byteOffset" : 24, "componentType" : 5126, "count" : 1277, "type" : "VEC2", "max" : [1, 1], "min" : [0, 1], "name" : "TEXCOORD_0"}], "asset" : {"generator" : "Aspose.3D 21.12", "version" : "2.0"}, "buffers" : [{"uri" : "data:application/octet-stream;base64,", "byteLength" : 103756}], "bufferViews" : [{"buffer" : 0, "byteOffset" : 0, "byteLength" : 6104, "target" : 34963}, {"buffer" : 0, "byteOffset" : 6108, "byteLength" : 11904, "byteStride" : 32, "target" : 34962}, {"buffer" : 0, "byteOffset" : 18016, "byteLength" : 2112, "byteStride" : 32, "target" : 34962}, {"buffer" : 0, "byteOffset" : 20132, "byteLength" : 37728, "byteStride" : 32, "target" : 34962}, {"buffer" : 0, "byteOffset" : 57864, "byteLength" : 45888, "byteStride" : 32, "target" : 34962}], "materials" : [{"name" : "grey", "pbrMetallicRoughness" : {"baseColorFactor" : [0.06284482777118683, 0.06284482777118683, 0.06284482777118683, 1], "metallicFactor" : 0, "roughnessFactor" : 0.4000000059604645}, "emissiveFactor" : [0, 0, 0], "alphaMode" : "OPAQUE", "doubleSided" : true}, {"name" : "blue", "pbrMetallicRoughness" : {"baseColorFactor" : [0.0007898146868683398, 0.26213768124580383, 0.8000000715255737, 1], "metallicFactor" : 0, "roughnessFactor" : 0.5}, "emissiveFactor" : [0, 0, 0], "alphaMode" : "OPAQUE", "doubleSided" : true}, {"name" : "white", "pbrMetallicRoughness" : {"baseColorFactor" : [0.800000011920929, 0.800000011920929, 0.800000011920929, 1], "metallicFactor" : 0, "roughnessFactor" : 0.5}, "emissiveFactor" : [0, 0, 0], "alphaMode" : "OPAQUE", "doubleSided" : true}, {"name" : "white", "pbrMetallicRoughness" : {"baseColorFactor" : [0.800000011920929, 0.800000011920929, 0.800000011920929, 1], "metallicFactor" : 0, "roughnessFactor" : 0.5}, "emissiveFactor" : [0, 0, 0], "alphaMode" : "OPAQUE", "doubleSided" : true}], "meshes" : [{"primitives" : [{"attributes" : {"POSITION" : 1, "NORMAL" : 2, "TEXCOORD_0" : 3}, "indices" : 0, "material" : 0, "mode" : 4}]}, {"primitives" : [{"attributes" : {"POSITION" : 5, "NORMAL" : 6, "TEXCOORD_0" : 7}, "indices" : 4, "material" : 1, "mode" : 4}]}, {"primitives" : [{"attributes" : {"POSITION" : 9, "NORMAL" : 10, "TEXCOORD_0" : 11}, "indices" : 8, "material" : 2, "mode" : 4}]}, {"primitives" : [{"attributes" : {"POSITION" : 13, "NORMAL" : 14, "TEXCOORD_0" : 15}, "indices" : 12, "material" : 3, "mode" : 4}]}], "nodes" : [{"matrix" : [0.20000000298023224, 0, 0, 0, 0, 2.5, 0, 0, 0, 0, 0.20000000298023224, 0, 0, 2.4000000953674316, 0, 1], "mesh" : 0, "name" : "Cylinder"}, {"matrix" : [0, 5.960464477539063E-08, -1.9999999403953552, 0, 0.4999999850988388, 0, -1.4901161193847656E-08, 0, -1.4901161193847656E-08, -0.4999999850988388, 0, 0, 0.08844627439975739, 4.110002517700195, 0, 1], "mesh" : 1, "name" : "Plane"}, {"matrix" : [0, 1.1920929132713809E-08, -0.39999999403953534, 0, 0.7999999880790707, 0, -2.3841858265427618E-08, 0, -1.1920929132713809E-08, -0.39999999403953534, 0, 0, 0.17312783002853394, 3.9658806324005127, -0.43695199489593506, 1], "mesh" : 2, "name" : "Room 1"}, {"matrix" : [0, 1.1920929132713809E-08, -0.39999999403953534, 0, 0.7999999880790707, 0, -2.3841858265427618E-08, 0, -1.1920929132713809E-08, -0.39999999403953534, 0, 0, 0.17860296368598938, 3.9295341968536377, 1.7309410572052002, 1], "mesh" : 3, "name" : "Room 2"}], "scene" : 0, "scenes" : [{"nodes" : [0, 1, 2, 3]}]}